<svg xmlns="http://www.w3.org/2000/svg" xmlns:xlink="http://www.w3.org/1999/xlink" version="1.1" x="0px" y="0px" viewBox="0 0 48 60" enable-background="new 0 0 48 48" xml:space="preserve"><g><path d="M46.598,12.657h-14.25c-0.771,0-1.404,0.739-1.404,1.642v32.061c0,0.902,0.633,1.641,1.404,1.641h14.25   C47.369,48,48,47.262,48,46.359V14.299C48,13.396,47.369,12.657,46.598,12.657z M39.998,45.641c0,0.451-0.236,0.821-0.525,0.821   c-0.291,0-0.527-0.37-0.527-0.821v-7.59h1.053V45.641z M39.998,36.137h-1.053v-1.914c0-0.451,0.236-0.82,0.527-0.82   c0.289,0,0.525,0.369,0.525,0.82V36.137z M46.166,20.138H32.779v-3.829h13.387V20.138z"/><path d="M28.139,37.563h-0.824l-1.75-4.691h2.574v-5.064H1.875V3.722c0-0.91,0.676-1.654,1.5-1.654h33.563   c0.746,0,1.365,0.613,1.477,1.403v7.627h1.898v-7.62V2.988V1.654c0-0.91-0.676-1.654-1.5-1.654H1.5C0.676,0,0,0.744,0,1.654v29.563   c0,0.909,0.676,1.653,1.5,1.653h13.154l-1.75,4.691H10.57v2.327h17.813c-0.156-0.485-0.244-1.005-0.244-1.548V37.563z    M20.156,31.252c-0.533,0-0.969-0.479-0.969-1.068s0.436-1.067,0.969-1.067c0.535,0,0.969,0.478,0.969,1.067   S20.691,31.252,20.156,31.252z"/></g><text x="0" y="63" fill="#000000" font-size="5px" font-weight="bold" font-family="'Helvetica Neue', Helvetica, Arial-Unicode, Arial, Sans-serif">Created by Creative Stall</text><text x="0" y="68" fill="#000000" font-size="5px" font-weight="bold" font-family="'Helvetica Neue', Helvetica, Arial-Unicode, Arial, Sans-serif">from the Noun Project</text></svg>