<svg xmlns="http://www.w3.org/2000/svg" xmlns:xlink="http://www.w3.org/1999/xlink" version="1.1" x="0px" y="0px" viewBox="0 0 100 125" enable-background="new 0 0 100 100" xml:space="preserve"><g><path d="M7.7,32.7h36.2c1.5,0,2.7-1.2,2.7-2.7V14.1c0-1.5-1.2-2.7-2.7-2.7H7.7c-1.5,0-2.7,1.2-2.7,2.7V30C5,31.5,6.2,32.7,7.7,32.7   z"/><path d="M92.3,11.4H56.1c-1.5,0-2.7,1.2-2.7,2.7V30c0,1.5,1.2,2.7,2.7,2.7h36.2c1.5,0,2.7-1.2,2.7-2.7V14.1   C95,12.6,93.8,11.4,92.3,11.4z"/><path d="M43.9,67.3H7.7C6.2,67.3,5,68.5,5,70v15.9c0,1.5,1.2,2.7,2.7,2.7h36.2c1.5,0,2.7-1.2,2.7-2.7V70   C46.6,68.5,45.4,67.3,43.9,67.3z"/><path d="M92.3,67.3H56.1c-1.5,0-2.7,1.2-2.7,2.7v15.9c0,1.5,1.2,2.7,2.7,2.7h36.2c1.5,0,2.7-1.2,2.7-2.7V70   C95,68.5,93.8,67.3,92.3,67.3z"/><path d="M29.2,42V58c0,1.5,1.2,2.7,2.7,2.7h36.2c1.5,0,2.7-1.2,2.7-2.7V42c0-1.5-1.2-2.7-2.7-2.7H31.9C30.4,39.3,29.2,40.5,29.2,42   z"/><path d="M7.7,60.7h12.5c1.5,0,2.7-1.2,2.7-2.7V42c0-1.5-1.2-2.7-2.7-2.7H7.7C6.2,39.3,5,40.5,5,42V58C5,59.5,6.2,60.7,7.7,60.7z"/><path d="M92.3,39.3H79.7c-1.5,0-2.7,1.2-2.7,2.7V58c0,1.5,1.2,2.7,2.7,2.7h12.5c1.5,0,2.7-1.2,2.7-2.7V42   C95,40.5,93.8,39.3,92.3,39.3z"/></g><text x="0" y="115" fill="#000000" font-size="5px" font-weight="bold" font-family="'Helvetica Neue', Helvetica, Arial-Unicode, Arial, Sans-serif">Created by parkjisun</text><text x="0" y="120" fill="#000000" font-size="5px" font-weight="bold" font-family="'Helvetica Neue', Helvetica, Arial-Unicode, Arial, Sans-serif">from the Noun Project</text></svg>